<svg viewBox="0 0 24 24" xmlns="http://www.w3.org/2000/svg"><title>Avalanche</title><path d="M8.605 18.248H5.349c-.52 0-.779 0-.937-.1a.83.83 0 0 1-.37-.493c-.055-.17.003-.398.12-.614L11.35 4.793c.12-.22.181-.33.257-.372a.33.33 0 0 1 .302 0c.076.042.137.152.257.372l1.264 2.203.008.012c.29.504.436.759.503 1.024a1.79 1.79 0 0 1 0 .875c-.068.268-.217.525-.512 1.034L10.27 16.018l-.009.015c-.295.507-.443.762-.641.957a1.79 1.79 0 0 1-.66.449c-.25.086-.537.086-1.054.086Zm6.276 0h3.56c.524 0 .786 0 .944-.103a.82.82 0 0 0 .368-.498c.053-.168-.006-.391-.119-.6l-.011-.02-1.784-3.053-.02-.033c-.117-.198-.176-.298-.252-.338a.33.33 0 0 0-.296 0c-.076.042-.136.148-.253.362l-1.78 3.053-.008.013c-.117.214-.175.322-.123.49a.83.83 0 0 0 .37.49c.157.1.413.1.944.1h.46Z"/></svg>
